# xmcd
# 
# Track frame offsets:
#     150
#     24351
#     56472
#     80881
#     88397
#     99951
#     108052
#     116730
#     136060
#     153732
#     165002
#     177775
# 
# Disc length: 2469
# 
# Revision: 0
# Processed by: cddbd v1.5.2PL0 Copyright (c) Steve Scherf et al.
# Submitted via: fre:ac v1.0.31
# 
DISCID=8a09a30c
DTITLE=Various Artist - Newport Jazz 1959
DYEAR=1959
DGENRE=Folk
TTITLE0=Pete Seeger - The Bells of Rhymney
TTITLE1=Pete Seeger - One Grain of Sand/Abiyoyo
TTITLE2=Pete Seeger - Careless Love
TTITLE3=Martha Schlamm - Hey Daroma
TTITLE4=Martha Schlamm - There's A Hole In The Bucket
TTITLE5=Martha Schlamm - Que Bonita Bandeira
TTITLE6=Leon Bibb - Lonesome Traveler
TTITLE7=Leon Bibb - Every Night When the Sun Goes Down
TTITLE8=Leon Bibb - Times Are Gettin Hard
TTITLE9=Leon Bibb - Sinner Man
TTITLE10=Tom Makem Pat Clancy Pete Seeger - Cobbler's Song
TTITLE11=Tom Makem Pat Clancy Pete Seeger - Mountain Dew
EXTD=Recorded Live
EXTT0=
EXTT1=
EXTT2=
EXTT3=
EXTT4=
EXTT5=
EXTT6=
EXTT7=
EXTT8=
EXTT9=
EXTT10=
EXTT11=
PLAYORDER=
